<?xml version="1.0" encoding="UTF-8" standalone="no"?>
<!-- Created with Inkscape (http://www.inkscape.org/) -->

<svg
   width="210mm"
   height="297mm"
   viewBox="0 0 210 297"
   version="1.1"
   id="svg16148"
   inkscape:version="1.1 (c68e22c387, 2021-05-23)"
   sodipodi:docname="bola2.svg"
   xmlns:inkscape="http://www.inkscape.org/namespaces/inkscape"
   xmlns:sodipodi="http://sodipodi.sourceforge.net/DTD/sodipodi-0.dtd"
   xmlns:xlink="http://www.w3.org/1999/xlink"
   xmlns="http://www.w3.org/2000/svg"
   xmlns:svg="http://www.w3.org/2000/svg">
  <sodipodi:namedview
     id="namedview16150"
     pagecolor="#ffffff"
     bordercolor="#666666"
     borderopacity="1.0"
     inkscape:pageshadow="2"
     inkscape:pageopacity="0.0"
     inkscape:pagecheckerboard="0"
     inkscape:document-units="mm"
     showgrid="false"
     inkscape:zoom="0.55991616"
     inkscape:cx="400.05989"
     inkscape:cy="571.51413"
     inkscape:window-width="1280"
     inkscape:window-height="738"
     inkscape:window-x="-8"
     inkscape:window-y="-8"
     inkscape:window-maximized="1"
     inkscape:current-layer="layer1" />
  <defs
     id="defs16145">
    <rect
       x="365.36915"
       y="561.25984"
       width="97.2001"
       height="95.981411"
       id="rect29957" />
    <inkscape:path-effect
       effect="powerstroke"
       id="path-effect28547"
       is_visible="true"
       lpeversion="1"
       offset_points="1.09069,0.27297793"
       not_jump="true"
       sort_points="true"
       interpolator_type="CentripetalCatmullRom"
       interpolator_beta="0.6"
       start_linecap_type="round"
       linejoin_type="spiro"
       miter_limit="4"
       scale_width="0"
       end_linecap_type="round" />
    <inkscape:path-effect
       effect="simplify"
       id="path-effect28545"
       is_visible="true"
       lpeversion="1"
       steps="1"
       threshold="0.010409165"
       smooth_angles="0"
       helper_size="0"
       simplify_individual_paths="false"
       simplify_just_coalesce="false"
       step="1" />
    <rect
       x="358.7661"
       y="548.05373"
       width="125.45808"
       height="94.643817"
       id="rect27527" />
    <linearGradient
       inkscape:collect="always"
       id="linearGradient22309">
      <stop
         style="stop-color:#000000;stop-opacity:1;"
         offset="0"
         id="stop22305" />
      <stop
         style="stop-color:#000000;stop-opacity:0;"
         offset="1"
         id="stop22307" />
    </linearGradient>
    <rect
       x="356.56508"
       y="541.45067"
       width="143.06623"
       height="94.643817"
       id="rect18347" />
    <linearGradient
       inkscape:collect="always"
       id="linearGradient16663">
      <stop
         style="stop-color:#000000;stop-opacity:1;"
         offset="0"
         id="stop16659" />
      <stop
         style="stop-color:#000000;stop-opacity:0;"
         offset="1"
         id="stop16661" />
    </linearGradient>
    <linearGradient
       inkscape:collect="always"
       xlink:href="#linearGradient16663"
       id="linearGradient16665"
       x1="107.15295"
       y1="211.97647"
       x2="104.82353"
       y2="80.947067"
       gradientUnits="userSpaceOnUse" />
    <radialGradient
       inkscape:collect="always"
       xlink:href="#linearGradient22309"
       id="radialGradient22311"
       cx="102.78529"
       cy="99.873535"
       fx="102.78529"
       fy="99.873535"
       r="39.891175"
       gradientTransform="matrix(1,0,0,0.59854018,-1.7470586,41.551095)"
       gradientUnits="userSpaceOnUse" />
    <clipPath
       clipPathUnits="userSpaceOnUse"
       id="clipPath23199">
      <path
         id="path23201"
         style="opacity:1;vector-effect:none;fill:none;fill-opacity:1;stroke:#000000;stroke-width:0.264583px;stroke-linecap:butt;stroke-linejoin:miter;stroke-miterlimit:4;stroke-dasharray:none;stroke-dashoffset:0;stroke-opacity:1"
         d="m 54.74136,41.346829 v 6.801654 c 1.024676,-0.01368 2.048881,-0.02331 3.071649,-0.03824 5.698429,-0.0094 11.383864,0.406243 17.045987,1.014925 0.0065,0.0011 0.0131,0.0016 0.01963,0.0026 -0.10393,-2.593287 -0.189703,-5.187333 -0.283186,-7.780922 z m 27.431918,0 c 0.09486,2.643076 0.178422,5.286724 0.286806,7.929232 0.0176,0.288552 0.03505,0.577038 0.05271,0.865582 2.251477,0.253171 4.507701,0.463729 6.772196,0.606681 3.969149,0.206656 7.944731,0.214326 11.91813,0.222724 0.81849,7.94e-4 1.63708,-0.0021 2.45567,-0.0031 v -9.62112 z M 57.923597,55.679806 c -1.060064,0.0154 -2.121281,0.03628 -3.182237,0.05323 v 14.149525 h 21.178555 c -0.01937,-0.793782 -0.03499,-1.587656 -0.0615,-2.38125 -0.126662,-3.557463 -0.31808,-7.111106 -0.526582,-10.663949 -0.427908,-0.06296 -0.856477,-0.119438 -1.284161,-0.185002 -5.355817,-0.579255 -10.733714,-0.973492 -16.124078,-0.97255 z m 25.048599,2.120799 c 0.179123,3.14203 0.339815,6.28522 0.45217,9.430951 0.02959,0.883558 0.04785,1.767232 0.06873,2.651001 h 20.165694 v -11.34401 c -0.82389,0.0011 -1.64779,0.0039 -2.47169,0.0031 -4.12802,-0.0089 -8.258253,-0.01902 -12.381665,-0.238228 -1.949522,-0.124471 -3.892788,-0.301141 -5.833237,-0.502814 z" />
    </clipPath>
  </defs>
  <g
     inkscape:label="Capa 1"
     inkscape:groupmode="layer"
     id="layer1">
    <ellipse
       style="opacity:0.520124;fill:#808080;fill-opacity:1;stroke:#ffffff;stroke-width:0;stroke-miterlimit:4;stroke-dasharray:none"
       id="path25015"
       cx="89.68235"
       cy="213.14116"
       rx="46.005878"
       ry="20.382353" />
    <ellipse
       style="opacity:0.99359;fill:url(#linearGradient16665);fill-opacity:1;stroke:#000000;stroke-width:0"
       id="path16231"
       cx="102.49412"
       cy="147.04411"
       rx="67.55294"
       ry="67.261765" />
    <ellipse
       style="opacity:0.99359;fill:#ffffff;fill-opacity:1;stroke:#ffffff;stroke-width:0"
       id="path17039"
       cx="105.01483"
       cy="155.52647"
       rx="34.06765"
       ry="33.485294" />
    <ellipse
       style="opacity:0.377709;fill:url(#radialGradient22311);fill-opacity:1;stroke:#ffffff;stroke-width:0;stroke-miterlimit:4;stroke-dasharray:none"
       id="path22133"
       cx="101.03824"
       cy="101.32941"
       rx="39.891174"
       ry="23.876471" />
    <path
       style="opacity:0.377709;fill:#ffffff;fill-opacity:0.315385;stroke:#ffffff;stroke-width:0;stroke-miterlimit:4;stroke-dasharray:none"
       d="m 128.35456,103.83845 c -0.46074,-0.007 -0.92275,0.004 -1.38643,0.0388 h -4.10328 c 0.005,2.83975 4.3e-4,5.67909 -0.0958,8.51691 h 14.1857 c 0.26616,0 0.48033,-0.29205 0.48033,-0.655 v -7.21428 c -0.52823,0.0213 -1.05619,0.0664 -1.58509,0.15077 -1.13124,0.0417 -2.24852,-0.13924 -3.36773,-0.36393 -1.37432,-0.25691 -2.74552,-0.45075 -4.12772,-0.47323 z"
       id="path23461" />
    <path
       style="opacity:0.377709;fill:#ffffff;fill-opacity:0.365385;stroke:#ffffff;stroke-width:0;stroke-miterlimit:4;stroke-dasharray:none"
       d="m 122.86172,91.429538 v 6.769731 h 4.10641 c 0.51056,-0.03364 1.01944,-0.0436 1.5274,-0.03372 1.52386,0.02966 3.038,0.237902 4.55235,0.520898 0.86723,0.08951 1.74422,0.425418 2.61767,0.316648 0.58959,-0.09319 1.17934,-0.139363 1.76955,-0.159294 v -6.759267 c 0,-0.362952 -0.21417,-0.654997 -0.48033,-0.654997 z"
       id="path23423" />
    <path
       style="opacity:0.377709;fill:#ffffff;fill-opacity:0.246154;stroke:#ffffff;stroke-width:0;stroke-miterlimit:4;stroke-dasharray:none"
       d="m 105.40578,103.87721 v 7.86191 c 0,0.36295 0.21445,0.655 0.48061,0.655 h 12.70464 c 0.005,-0.0807 0.0129,-0.16113 0.0182,-0.24185 0.0951,-2.75714 0.0968,-5.51585 0.0912,-8.27506 h -1.4248 -9.08225 z"
       id="path23497" />
    <path
       style="opacity:0.321981;fill:#ffffff;fill-opacity:0.319231;stroke:#ffffff;stroke-width:0;stroke-miterlimit:4;stroke-dasharray:none"
       d="m 106.03694,91.429538 c -0.34953,0 -0.63116,0.292045 -0.63116,0.654997 v 6.114734 h 3.66087 11.92731 1.86776 v -6.769731 z"
       id="rect23385" />
    <path
       d="m 96.670588,148.5 c -0.209642,-1.52912 -0.262305,-4.25972 1.265032,-7.29865 0.979832,-1.94956 2.61718,-4.00116 5.07016,-5.4139 0.25143,-0.14734 0.51122,-0.29549 0.77775,-0.44185 0.95246,-0.52305 2.27846,-1.18412 3.73873,-1.61326 0.74461,-0.21882 1.55981,-0.38875 2.41942,-0.44643 0.78242,-0.0525 1.61488,-0.013 2.47813,0.17568 0.62645,-0.15521 1.31292,-0.35181 2.01926,-0.50714 0.6643,-0.14609 1.35695,-0.25645 2.01031,-0.23485 0.317,0.0105 0.62765,0.052 0.92458,0.13683 0.29121,0.0832 0.57013,0.20824 0.82969,0.38749 0.25508,0.17615 0.49202,0.40502 0.70392,0.699 0.20862,0.28943 0.39329,0.6424 0.54725,1.07137 0.57681,0.97747 1.01156,2.01333 1.35787,3.09963 0.33901,1.06343 0.58895,2.16096 0.8085,3.28844 0.42252,2.16974 0.73696,4.50613 1.37387,6.66028 0.36652,1.6562 0.72625,3.42068 0.76281,5.15788 0.0183,0.86751 -0.044,1.72747 -0.22497,2.56557 -0.18173,0.84151 -0.48265,1.65852 -0.93951,2.43774 -0.94527,1.98645 -2.14541,3.75152 -3.49974,5.36822 -1.36994,1.63533 -2.90272,3.12456 -4.49057,4.53338 -3.26911,2.90051 -6.77725,5.49036 -9.77955,8.32751 1.73862,-0.74534 3.51539,-1.18988 5.23587,-1.45724 1.8731,-0.29107 3.7348,-0.37951 5.42863,-0.38991 2.92258,-0.19333 5.99652,-0.75248 8.35087,-1.15976 3.62463,-0.62703 5.91389,-0.96045 8.35522,-1.06956 a 0,0 0 0 0 0,0 c -2.44133,0.10911 -4.73059,0.44253 -8.35522,1.06956 -2.35435,0.40728 -5.42829,0.96643 -8.35087,1.15976 -1.69383,0.0104 -3.55553,0.0988 -5.42863,0.38991 -1.72048,0.26736 -3.49725,0.7119 -5.23587,1.45724 3.0023,-2.83715 6.51044,-5.427 9.77954,-8.3275 1.58786,-1.40883 3.12064,-2.89806 4.49058,-4.53339 1.35433,-1.6167 2.55447,-3.38177 3.49974,-5.36822 0.45686,-0.77922 0.75778,-1.59623 0.93951,-2.43774 0.18099,-0.8381 0.24323,-1.69806 0.22497,-2.56557 -0.0366,-1.7372 -0.39629,-3.50168 -0.76281,-5.15788 -0.63691,-2.15415 -0.95135,-4.49054 -1.37387,-6.66028 -0.21955,-1.12748 -0.46949,-2.22501 -0.8085,-3.28844 -0.34631,-1.0863 -0.78106,-2.12216 -1.35787,-3.09963 -0.15396,-0.42897 -0.33863,-0.78194 -0.54725,-1.07137 -0.2119,-0.29398 -0.44884,-0.52285 -0.70392,-0.699 -0.25956,-0.17925 -0.53848,-0.30431 -0.82969,-0.38749 -0.29693,-0.0848 -0.60758,-0.12635 -0.92458,-0.13683 -0.65336,-0.0216 -1.34601,0.0888 -2.01031,0.23485 -0.70634,0.15533 -1.39281,0.35193 -2.01926,0.50714 -0.86325,-0.18868 -1.69571,-0.22817 -2.47813,-0.17568 -0.85961,0.0577 -1.67481,0.22761 -2.41942,0.44643 -1.46027,0.42914 -2.78627,1.09021 -3.73873,1.61326 -0.26653,0.14636 -0.52632,0.29451 -0.77775,0.44185 -2.45298,1.41274 -4.090328,3.46434 -5.07016,5.4139 -1.527337,3.03893 -1.474674,5.76953 -1.265032,7.29865 z"
       id="path-1"
       inkscape:path-effect="#path-effect28545;#path-effect28547"
       inkscape:original-d="m 96.670588,148.5 c -0.788407,-7.86334 4.425042,-13.19008 12.229412,-15.14118 1.46159,-0.36539 3.19723,0.3654 4.65882,0 0.7028,-0.17569 3.32197,-1.33686 4.07647,-0.58235 3.45598,3.45598 3.44616,6.46924 4.65883,12.22941 0.51917,2.46607 2.16143,8.07452 1.1647,11.06471 -3.15657,9.46972 -13.49575,15.24281 -18.63529,20.38235 -0.013,0.013 4.15177,-1.74706 8.15294,-1.74706 6.51187,0 14.73605,-2.32941 19.21765,-2.32941"
       style="fill:#000000;fill-rule:nonzero;stroke:none;stroke-width:1px;stroke-linecap:butt;stroke-linejoin:miter;stroke-opacity:1" />
    <g
       aria-label="2"
       transform="matrix(2.1531522,0,0,1.6493771,-706.42613,-804.02832)"
       id="text29955"
       style="font-size:40px;line-height:1.25;letter-spacing:0px;word-spacing:0px;white-space:pre;shape-inside:url(#rect29957)">
      <path
         d="m 373.04492,593.33008 h 13.76953 v 3.32031 h -18.51562 v -3.32031 q 2.24609,-2.32422 6.11328,-6.23047 3.88672,-3.92578 4.88281,-5.05859 1.89453,-2.12891 2.63672,-3.59375 0.76172,-1.48438 0.76172,-2.91016 0,-2.32422 -1.64063,-3.78906 -1.62109,-1.46485 -4.23828,-1.46485 -1.85547,0 -3.92578,0.64453 -2.05078,0.64454 -4.39453,1.95313 v -3.98438 q 2.38281,-0.95703 4.45313,-1.44531 2.07031,-0.48828 3.78906,-0.48828 4.53125,0 7.22656,2.26563 2.69531,2.26562 2.69531,6.05468 0,1.79688 -0.68359,3.41797 -0.66406,1.60156 -2.44141,3.78906 -0.48828,0.56641 -3.10547,3.28125 -2.61718,2.69532 -7.38281,7.5586 z"
         id="path30877" />
    </g>
  </g>
</svg>
